# xmcd CD database generated by RipIT
#
# Track frame offsets:
# 150
# 16500
# 35063
# 52463
# 65213
# 78263
# 98738
# 112238
# 130538
# 141338
# 166207
# 186457
#
# Disc length: 2793 seconds
#
# Revision: 0
# Processed by: cddbd v1.5.2PL0 Copyright (c) Steve Scherf et al.
# Submitted via: RipIT 4.0.0-beta20140508 www.suwald.com/ripit/ripit.html on 2019-08-29 at 09:57
#
DISCID=ad0ae70c
DTITLE=Ironsword - None But The Brave
DYEAR=2015
DGENRE=Heavy Metal
TTITLE0=Forging The Sword
TTITLE1=Kings Of The Knight
TTITLE2=Calm Before The Storm
TTITLE3=None But The Brave
TTITLE4=Ring OF Fire
TTITLE5=Betrayer
TTITLE6=The Usurper
TTITLE7=Army Of Darkness
TTITLE8=Vengeance Will Be Mine
TTITLE9=Cursed And Damned
TTITLE10=Eye For An Eye
TTITLE11=The Shadow Kingdom
EXTD=
EXTT0=
EXTT1=
EXTT2=
EXTT3=
EXTT4=
EXTT5=
EXTT6=
EXTT7=
EXTT8=
EXTT9=
EXTT10=
EXTT11=
PLAYORDER=
